# xmcd
#
# Track frame offsets: 
#        182
#        12890
#        24447
#        35720
#        49015
#        60460
#        70195
#        82175
#        92097
#        104392
#        115775
#        129215
#        141057
#        153225
#        166257
#        178732
#        189990
#        206132
#        220607
#        235345
#        252787
#
# Disc length: 3583 seconds
#
# Revision: 1
# Processed by: cddbd v1.5.1PL2 Copyright (c) Steve Scherf et al.
# Submitted via: ExactAudioCopy v0.90b4
#
DISCID=180dfd15
DTITLE=Various Artist - Heart and soul of country disc 1 of 6
DYEAR=1992
DGENRE=Country
TTITLE0=Jim Reeves - I love you because
TTITLE1=Jim Reeves - Carolina moon
TTITLE2=Jim Reeves - Just walkin' in the rain
TTITLE3=Jim Reeves - You'll Never Know
TTITLE4=Jim Reeves - Moon River
TTITLE5=Jim Reeves - Ramona
TTITLE6=Jim Reeves - Mona Lisa
TTITLE7=Jim Reeves - Chairmaine
TTITLE8=Jim Reeves - Maria Elena
TTITLE9=Jim Reeves - My Happiness
TTITLE10=Jim Reeves - Danny Boy
TTITLE11=Jim Reeves - have you ever been lonely (have you ever been bl
TTITLE11=ue)
TTITLE12=Jim Reeves - Just out of reach
TTITLE13=Jim Reeves - have I told you lately that I love you?
TTITLE14=Billie Jo Spears - What  I've got in mind
TTITLE15=Billie Jo Spears - Her you come  again
TTITLE16=Billie Jo Spears - Queen of the Silver Dollar
TTITLE17=Billie Jo Spears - Cryin' Time
TTITLE18=Billie Jo Spears - Heatrbreak  Hotel
TTITLE19=Billie Jo Spears - For The Good times
TTITLE20=Billie Jo Spears - Blanket on the Ground
EXTD=
EXTT0=
EXTT1=
EXTT2=
EXTT3=
EXTT4=
EXTT5=
EXTT6=
EXTT7=
EXTT8=
EXTT9=
EXTT10=
EXTT11=
EXTT12=
EXTT13=
EXTT14=
EXTT15=
EXTT16=
EXTT17=
EXTT18=
EXTT19=
EXTT20=
PLAYORDER=
